<svg id="Layer_1" data-name="Layer 1" xmlns="http://www.w3.org/2000/svg" viewBox="0 0 400 300" width="406" height="306" class="illustration styles_illustrationTablet__1DWOa"><rect x="156.34" y="141.52" width="52.7" height="15.56" fill="#e6e6e6"></rect><ellipse cx="209.04" cy="243.05" rx="147.26" ry="15.1" fill="#e6e6e6" opacity="0.45"></ellipse><rect x="94.7" y="163.99" width="141.72" height="73.96" fill="#e6e6e6"></rect><rect x="86.79" y="155.86" width="157.53" height="8.13" fill="#c9c9c9"></rect><path d="M147.78,239.23s2.19,3.64,5.79,3.24,5.22,2.87,2.21,4.41-13.47-1-13.47-1v-6.47Z" fill="#ffffff"></path><path d="M100.2,239.23s-2.19,3.64-5.79,3.24-5.23,2.87-2.22,4.41,14.91-1.41,14.91-1.41l-1.43-6.06Z" fill="#ffffff"></path><path d="M140.15,159H87.84l9.4,80.31h11.94s-4.23-57.16,1.68-66.56l0-.05a5.09,5.09,0,0,1,8.11-.43c14,16.35,19.48,67,19.48,67h11.57Z" fill="#24285b"></path><path d="M109.17,102c-2.83-15.88,19.07-23.26,26.38-8.88,8.72,17.17,24,40.19,41.21,34.21,20.74-7.22,26.56-18.36,28.13-23a9.29,9.29,0,0,1,3.47-4.64c2.42-1.7,5.87-3.14,8.44-.31,4.41,4.86-4.84,9.93-4.84,9.93s-14,40.85-47.35,40C142.09,148.71,113,123.31,109.17,102Z" fill="#f4a28c"></path><path d="M109.17,102c-2.83-15.88,19.07-23.26,26.38-8.88,8.72,17.17,24,40.19,41.21,34.21,21.51-7.49,27-19.19,28.28-23.46a7,7,0,0,1,2.31-3.39c2.38-1.93,6.49-4.33,9.45-1.07,4.41,4.86-4.84,9.93-4.84,9.93s-14,40.85-47.35,40C142.09,148.71,113,123.31,109.17,102Z" opacity="0.09"></path><path d="M114.29,75.93s-23.2-3.72-33.69,16.9S87.84,159,87.84,159h52.31S184.15,82.17,114.29,75.93Z" fill="#ffffff"></path><path d="M126.33,78l-1.41,119.88h25.13s8.09-76.36,2.34-96.42S134.56,81.3,126.33,78Z" fill="#ffffff"></path><path d="M114.29,75.93l1.27,123.24-29.68,1.19s-11.42-67.85-8.32-84.46S74.6,95,81.12,87.77A35.93,35.93,0,0,1,114.29,75.93Z" fill="#ffffff"></path><path d="M115.56,199.17l-4.93.2-24.75,1s-11.42-67.85-8.32-84.46a52.61,52.61,0,0,0,.94-10.76c-.15-8.29-2.2-12,2.62-17.37a35.93,35.93,0,0,1,33.17-11.84Z" fill="#fff" opacity="0.44"></path><path d="M112.69,189.27a12.37,12.37,0,0,1-1.29,2.18c-1.49,2.48-1.23,5.22-.77,7.92l-24.75,1s-11.42-67.85-8.32-84.46a52.61,52.61,0,0,0,.94-10.76,21.68,21.68,0,0,1,11.59-3.4c.38,0,.76,0,1.13.06,8.48.7,7.48,10.32,5.92,16.77-1.73,7.18-6.26,13.19-8.07,20.27-2,7.8-4.28,22.71,3.6,27.63,2.38,1.48,5.07,2.45,7.39,4a33.4,33.4,0,0,1,5.84,5.5c2.86,3.18,5.83,6.56,6.77,10.73A5,5,0,0,1,112.69,189.27Z" opacity="0.08"></path><path d="M126.33,78l-1.41,119.88h25.13s8.09-76.36,2.34-96.42S134.56,81.3,126.33,78Z" fill="#fff" opacity="0.44"></path><path d="M90,82.12c-7.8,4.49-21.29,13.47-29.08,25.57l24.47,22.89s42.75-29.68,17.53-47.82A11.94,11.94,0,0,0,90,82.12Z" fill="#ffffff"></path><path d="M89.51,82.39c-7.87,4.58-21,13.44-28.61,25.3l24.47,22.89s42.25-29.34,18-47.51A12.6,12.6,0,0,0,89.51,82.39Z" fill="#fff" opacity="0.44"></path><rect x="72.92" y="176.54" width="35.4" height="25.06" transform="translate(-102.89 108.36) rotate(-41.75)" fill="#ffd200"></rect><path d="M62.72,109.4s-25.11,28.68-17.61,40.92,35.06,25,35.06,25,1.84,10.07,7.77,9.3c2.32-.3,2.85-2.7,2.64-5.51a18.6,18.6,0,0,0-6.9-12.92c-8.45-6.87-23.82-23.2,1.69-35.65Z" fill="#f4a28c"></path><path d="M108.65,95.72c-1.46-8.73-1.42-20.93,8.53-22.16,10.9-1.34,20.34,19.48,14.71,34.31" fill="none" stroke="#24285b" stroke-linecap="round" stroke-linejoin="round" stroke-width="2"></path><polygon points="124.58 55.7 114.29 75.92 124.71 87.45 128.69 64.12 124.58 55.7" fill="#f4a28c"></polygon><path d="M128.23,67.8a8.23,8.23,0,0,1-3.12-3.55s-1.1,4,2,9.31Z" fill="#ce8172" opacity="0.31"></path><path d="M134.75,57.05s-.62,6.9-2.57,11.22A3.47,3.47,0,0,1,127.56,70c-2.15-1-4.78-3-4.9-6.74l-1-6.32a6.22,6.22,0,0,1,3.86-6.06C129.88,48.79,135.34,52.87,134.75,57.05Z" fill="#f4a28c"></path><path d="M134.14,61.38l1.43,3a1.11,1.11,0,0,1-1,1.59l-2.69,0Z" fill="#f4a28c"></path><path d="M119.85,63.86l.33-9.41s-4.78-2.37-2.28-5.2,3.86,0,5.07-3.8,4.5-3.59,6-.82,1.42-.5,4.25-.09,3.18,1.84,2.63,3.92,4,1,4.24,4-.39,5.47-7.26,3.87S129.16,61.69,119.85,63.86Z" fill="#ffd200"></path><path d="M126.46,61.6s.42-2.63-1.59-2.78-2.63,3.65,0,4.48Z" fill="#f4a28c"></path><circle cx="131.57" cy="109.4" r="4.08" fill="#24285b"></circle><path d="M113.38,118s4.76,0,5.25-4c.58-4.77-4.77-18.81-8.89-18.49-6.64.52-9.18,13.18-6.83,20,.79,2.31,4.48,2.1,6.25,2.18" fill="none" stroke="#24285b" stroke-linecap="round" stroke-linejoin="round" stroke-width="2"></path><rect x="100.01" y="171.58" width="5.21" height="10.73" transform="translate(-91.67 112.97) rotate(-41.66)" fill="#24285b"></rect><rect x="273.83" y="177.94" width="65.85" height="21.11" rx="10.55" fill="#ffd200"></rect><rect x="276.35" y="196.84" width="59.86" height="45.23" fill="#ffd200"></rect><path d="M306.34,71.5a28.57,28.57,0,0,0,1,7.58,2.3,2.3,0,0,0,2.94,1.44,5.11,5.11,0,0,0,3.69-4.13L315,72.28A4.12,4.12,0,0,0,312.83,68C310.1,66.36,306.23,68.69,306.34,71.5Z" fill="#f4a28c"></path><polygon points="315.65 74.71 316.96 89.73 308.63 89.85 310.97 79.15 315.65 74.71" fill="#f4a28c"></polygon><path d="M306.46,74.4l-1.15,1.86a.74.74,0,0,0,.55,1.12l1.78.19Z" fill="#f4a28c"></path><path d="M310.9,79.46a5.63,5.63,0,0,0,2.69-1.34s.59,3.25-3.36,4.4Z" fill="#ce8172" opacity="0.31"></path><polygon points="261.91 190.04 261.91 236.06 266.33 237.6 277.25 190.98 261.91 190.04" fill="#f4a28c"></polygon><path d="M262.07,235s-2.89,3.08-6.21,2.63-4.21,4.21,1.19,4.19a29.3,29.3,0,0,0,5-.42,8.79,8.79,0,0,1,4.5.55,1.44,1.44,0,0,0,1.58-.47c1.68-1.66-1.7-6.1-1.7-6.1Z" fill="#ffffff"></path><path d="M315.34,74.75s-.1-1.77,1.24-1.73,1.49,2.59-.29,3Z" fill="#f4a28c"></path><path d="M307.28,71.21a13.2,13.2,0,0,0,4.42,0s.94,5.11,5,6.39c0,0,3.84-7.62-.87-10.58-3.95-2.47-6.88-4.67-10.13-1.73A3.45,3.45,0,0,0,307.28,71.21Z" fill="#24285b"></path><circle cx="318.44" cy="64.84" r="4.57" fill="#24285b"></circle><path d="M311.62,73.89s.2-2,1.83-1.73,1.61,2.71-.44,3.66Z" fill="#f4a28c"></path><path d="M308.05,92.24l8.13-2.34s21.73,2.34,21.5,19.77c-.17,12.91-15.25,61.17-15.25,61.17H289.38v-17a49.53,49.53,0,0,0-5.5-23.14C278.77,121,276.09,104.15,308.05,92.24Z" fill="#ffffff"></path><path d="M289.38,162.89l33.05,8s1.61,14.26-9.89,15.38-46.75-2.8-33.05,40.56H252.21s-16.58-46.59,23.93-55.94c4.91-1.14,13.14-2.07,13.22-7.11Z" fill="#24285b"></path><path d="M305.75,104.39s-16.12,5.84-10.59,25.42-5.8,22.56-5.8,22.56L304,166.65l18.46,4.19,5.8-19.48Z" opacity="0.08"></path><path d="M304,93.87a5.32,5.32,0,0,1,3.09-6c4.14-2,13.93-4.54,15.37,3.51C322.43,91.36,313.34,97.27,304,93.87Z" fill="#ffffff"></path><path d="M304,93.87a5.32,5.32,0,0,1,3.09-6c4.14-2,13.93-4.54,15.37,3.51C322.43,91.36,313.34,97.27,304,93.87Z" fill="#fff" opacity="0.46"></path><path d="M301.9,113c1.33-15.31,23-17.21,27.17-2.42,2.21,7.81,3.35,19.13.79,35-6.17,38.33-57.14,26.76-57.14,26.76l-.94-5.44S293.53,158.15,304,147C310.13,140.37,300.83,125.33,301.9,113Z" fill="#f4a28c"></path><path d="M274.34,166.36s-8.69-.37-10.79,3.62-4,8.45.06,8.63,4.41-4.66,5.72-5.44,6.81-.82,6.81-3.7S274.34,166.36,274.34,166.36Z" fill="#f4a28c"></path><rect x="220.93" y="41.85" width="56.64" height="71.48" fill="#c9c9c9"></rect><rect x="224.07" y="45.81" width="50.36" height="63.56" fill="#e6e6e6"></rect><path d="M244.46,57.17l-2.41,1.63s4.77,1.59,4.31,10.21-1.06,12.65-9.29,15.33c-7.66,2.48-8.66,4.38-7.75,12.77l2.57-1.27s-2.31-6.88,2.68-7.79c0,0,.67,4.65,8.2,8.35,5.91,2.91,12.95.71,19.43-8.45s4.11-19.17-.65-21.21-12.44-1.28-12.44-1.28S249,61.48,244.46,57.17Z" opacity="0.08"></path><rect x="254.18" y="50.9" width="13.89" height="1.5" opacity="0.08"></rect><rect x="254.18" y="54.04" width="13.89" height="1.5" opacity="0.08"></rect><rect x="254.18" y="57.17" width="13.89" height="1.5" opacity="0.08"></rect><path d="M223.4,145.32s-8.31-2.28-10.12-10c0,0,12.88-2.6,13.25,10.7Z" fill="#ffffff" opacity="0.58"></path><path d="M224.42,144.49s-5.81-9.19-.69-17.78c0,0,9.8,6.23,5.44,17.8Z" fill="#ffffff" opacity="0.73"></path><path d="M225.92,144.5S229,134.79,238.27,133c0,0,1.74,6.3-6,11.56Z" fill="#ffffff"></path><polygon points="219.89 144.28 221.57 155.81 232.19 155.86 233.76 144.34 219.89 144.28" fill="#24285b"></polygon></svg>